<svg width="1920" height="1080" viewBox="0 0 1920 1080" xmlns="http://www.w3.org/2000/svg"><rect width="1920" height="1080" fill="#ff0048"/><path d="M 0,1080 C 0,1080 0,216 0,216 C 29.357957225578772,233.9926297381193 58.715914451157545,251.98525947623858 92,269 C 125.28408554884246,286.0147405237614 162.4942994209486,302.05159183316493 189,269 C 215.5057005790514,235.94840816683504 231.3068878650481,153.80837319110145 277,155 C 322.6931121349519,156.19162680889855 398.278149118859,240.71491540242926 433,249 C 467.721850881141,257.28508459757074 461.58051565951575,189.33196519918155 490,181 C 518.4194843404842,172.66803480081845 581.399788243078,223.95722380084453 610,226 C 638.600211756922,228.04277619915547 632.8203313681724,180.83913959744027 647,164 C 661.1796686318276,147.16086040255973 695.3188862842327,160.6862178093944 733,187 C 770.6811137157673,213.3137821906056 811.9041234948967,252.41598916498202 840,256 C 868.0958765051033,259.584010835018 883.0646197361809,227.64982553067748 920,233 C 956.9353802638191,238.35017446932252 1015.8373975603788,280.9847087123079 1066,269 C 1116.1626024396212,257.0152912876921 1157.5857900223043,190.4113396200909 1196,184 C 1234.4142099776957,177.5886603799091 1269.8194423504035,231.36993280732855 1281,248 C 1292.1805576495965,264.63006719267145 1279.1364405760817,244.1089291505948 1305,254 C 1330.8635594239183,263.8910708494052 1395.6347953452691,304.1943505902921 1426,284 C 1456.3652046547309,263.8056494097079 1452.3243780428422,183.1136684882366 1488,142 C 1523.6756219571578,100.88633151176337 1599.067692483362,99.35097545676132 1629,142 C 1658.932307516638,184.64902454323868 1643.40485202371,271.48242968471806 1684,270 C 1724.59514797629,268.51757031528194 1821.312899421797,178.71930580436626 1870,155 C 1918.687100578203,131.28069419563374 1919.3435502891016,173.64034709781686 1920,216 C 1920,216 1920,1080 1920,1080 Z" fill="#d1a47b" opacity="0.12"/><path d="M 0,1080 C 0,1080 0,432 0,432 C 50.8485925828475,464.53848670337584 101.697185165695,497.0769734067517 139,472 C 176.302814834305,446.9230265932483 200.05985192006747,364.2305930763691 212,373 C 223.94014807993253,381.7694069236309 224.06340715403502,482.0006542877721 256,496 C 287.936592845965,509.9993457122279 351.68651946379265,437.76678977254255 400,430 C 448.31348053620735,422.23321022745745 481.19051499079444,478.93218662205794 490,482 C 498.80948500920556,485.06781337794206 483.55142057302953,434.5044637392256 523,427 C 562.4485794269705,419.4955362607744 656.6038027170874,455.0499584210396 690,456 C 723.3961972829126,456.9500415789604 696.0333685586213,423.2957025766158 714,403 C 731.9666314413787,382.7042974233842 795.2627230484278,375.76723127249727 843,381 C 890.7372769515722,386.23276872750273 922.9157392476673,403.63537233339497 939,403 C 955.0842607523327,402.36462766660503 955.0743199609035,383.6912793939226 1005,396 C 1054.9256800390965,408.3087206060774 1154.7869809087188,451.5995100909144 1196,475 C 1237.2130190912812,498.4004899090856 1219.7777564042217,501.91068024241963 1241,491 C 1262.2222435957783,480.08931975758037 1322.1019934743942,454.7577689394072 1369,449 C 1415.8980065256058,443.2422310605928 1449.8142696982009,457.0582439999516 1466,460 C 1482.1857303017991,462.9417560000484 1480.6409277328023,455.0092550607863 1501,455 C 1521.3590722671977,454.9907449392137 1563.622019370589,462.90473575690265 1616,464 C 1668.377980629411,465.09526424309735 1730.8709947848413,459.37180191160314 1773,439 C 1815.1290052151587,418.62819808839686 1836.8940014900454,383.6080565966848 1858,380 C 1879.1059985099546,376.3919434033152 1899.5529992549773,404.19597170165764 1920,432 C 1920,432 1920,1080 1920,1080 Z" fill="#d1a47b" opacity="0.24"/><path d="M 0,1080 C 0,1080 0,648 0,648 C 13.05231737211217,691.8911555494325 26.10463474422434,735.782311098865 56,714 C 85.89536525577566,692.217688901135 132.63377839521482,604.7619111539723 188,571 C 243.36622160478518,537.2380888460277 307.3602516749163,557.170044285246 331,583 C 354.6397483250837,608.829955714754 337.92521490512,640.5579117050437 358,647 C 378.07478509488,653.4420882949563 434.93888870460364,634.5983088945792 485,642 C 535.0611112953964,649.4016911054208 578.3192302764655,683.0488527166394 591,672 C 603.6807697235345,660.9511472833606 585.7841901895342,605.2062802388633 622,595 C 658.2158098104658,584.7937197611367 748.5440089653978,620.1260263279074 785,639 C 821.4559910346022,657.8739736720926 804.0397739488748,660.289614449507 840,684 C 875.9602260511252,707.710385550493 965.2968952391025,752.7155158740649 997,724 C 1028.7031047608975,695.2844841259351 1002.7726450947159,592.8483220542336 1017,592 C 1031.227354905284,591.1516779457664 1085.6125243820343,691.8911959090008 1147,712 C 1208.3874756179657,732.1088040909992 1276.7772573771474,671.5868943097635 1301,653 C 1325.2227426228526,634.4131056902365 1305.278446109376,657.7612268519455 1332,661 C 1358.721553890624,664.2387731480545 1432.1089581853485,647.3681982824543 1481,653 C 1529.8910418146515,658.6318017175457 1554.2857211492299,686.7659800182374 1575,692 C 1595.7142788507701,697.2340199817626 1612.7481572177321,679.5678816445962 1640,657 C 1667.2518427822679,634.4321183554038 1704.7216499798412,606.962493403378 1730,622 C 1755.2783500201588,637.037506596622 1768.3652428629023,694.582144741892 1798,706 C 1827.6347571370977,717.417855258108 1873.817378568549,682.708927629054 1920,648 C 1920,648 1920,1080 1920,1080 Z" fill="#d1a47b" opacity="0.36"/><path d="M 0,1080 C 0,1080 0,864 0,864 C 50.298711328416275,892.1498694602228 100.59742265683255,920.2997389204457 120,896 C 139.40257734316745,871.7002610795543 127.90902070108606,794.9509137784396 138,804 C 148.09097929891394,813.0490862215604 179.7664945388231,907.8966059657959 241,905 C 302.2335054611769,902.1033940342041 393.02500114362175,801.462662358377 420,783 C 446.97499885637825,764.537337641623 410.13350088669006,828.2527446006962 441,850 C 471.86649911330994,871.7472553993038 570.4409953096178,851.526359238838 609,850 C 647.5590046903822,848.473640761162 626.1025178748384,865.6418184439517 633,862 C 639.8974821251616,858.3581815560483 675.1489331910279,833.9063669853551 727,819 C 778.8510668089721,804.0936330146449 847.3017493610498,798.7327136146278 886,788 C 924.6982506389502,777.2672863853722 933.644069364773,761.1627785561341 961,786 C 988.355930635227,810.8372214438659 1034.121973179858,876.6161721608358 1085,879 C 1135.878026820142,881.3838278391642 1191.8680379157947,820.3725328005232 1205,825 C 1218.1319620842053,829.6274671994768 1188.4058751569626,899.8936966370709 1205,926 C 1221.5941248430374,952.1063033629291 1284.5084614563552,934.0526806511934 1337,903 C 1389.4915385436448,871.9473193488066 1431.560279017616,827.8955807581553 1470,808 C 1508.439720982384,788.1044192418447 1543.2504224731802,792.3649963161849 1561,819 C 1578.7495775268198,845.6350036838151 1579.4380310896631,894.6444339771051 1594,917 C 1608.5619689103369,939.3555660228949 1636.9974531681673,935.057267775395 1681,936 C 1725.0025468318327,936.942732224605 1784.5721562376664,943.1264949213157 1827,932 C 1869.4278437623336,920.8735050786843 1894.7139218811667,892.4367525393421 1920,864 C 1920,864 1920,1080 1920,1080 Z" fill="#d1a47b" opacity="0.48"/></svg>