<svg width="720" height="720" viewBox="0 0 720 720" xmlns="http://www.w3.org/2000/svg"><rect width="720" height="720" fill="#df6688"/><path d="M 0,720 C 0,720 0,144 0,144 C 8.613530157938612,146.01763217668397 17.227060315877225,148.03526435336795 37,159 C 56.772939684122775,169.96473564663205 87.70528889442971,189.87657476321212 91,196 C 94.29471110557029,202.12342523678788 69.95178410640393,194.4584365937835 74,177 C 78.04821589359607,159.5415634062165 110.48757467995458,132.28967886165393 129,141 C 147.51242532004542,149.71032113834607 152.09791717377777,194.38284795960078 161,183 C 169.90208282622223,171.61715204039922 183.12075662493436,104.17892929994296 203,99 C 222.87924337506564,93.82107070005704 249.41905632648468,150.9014348406274 260,171 C 270.5809436735153,191.0985651593726 265.20301806912704,174.21533133754744 275,151 C 284.79698193087296,127.78466866245256 309.7688713970071,98.23723980918282 320,93 C 330.2311286029929,87.76276019081718 325.7214963428447,106.83570942572129 337,114 C 348.2785036571553,121.16429057427871 375.34514323161414,116.41992248793197 394,107 C 412.65485676838586,97.58007751206803 422.8979307306988,83.48460062255086 432,101 C 441.1020692693012,118.51539937744914 449.0631338455905,167.64167502186456 457,169 C 464.9368661544095,170.35832497813544 472.849533886939,123.9486992899909 482,112 C 491.150466113061,100.0513007100091 501.5387306066533,122.5635278181718 513,123 C 524.4612693933467,123.4364721818282 536.9955436864482,101.79718943732183 551,110 C 565.0044563135518,118.20281056267817 580.479094647554,156.24771443254082 589,175 C 597.520905352446,193.75228556745918 599.088077723336,193.2119528325148 603,182 C 606.911922276664,170.7880471674852 613.1685944591019,148.90447423739985 633,144 C 652.8314055408981,139.09552576260015 686.2375444402567,151.17015021788575 703,154 C 719.7624555597433,156.82984978211425 719.8812277798717,150.41492489105713 720,144 C 720,144 720,720 720,720 Z" fill="#3d1053" opacity="0.12"/><path d="M 0,720 C 0,720 0,288 0,288 C 3.776757518938698,310.24006501972457 7.553515037877396,332.48013003944914 24,331 C 40.446484962122604,329.51986996055086 69.56269736742912,304.3195448619281 89,310 C 108.43730263257088,315.6804551380719 118.19569549240612,352.2416905128386 126,335 C 133.80430450759388,317.7583094871614 139.6545206629464,246.7136930867173 148,248 C 156.3454793370536,249.2863069132827 167.1862218558083,322.9035371402921 183,337 C 198.8137781441917,351.0964628597079 219.60059191382035,305.67215835211437 223,293 C 226.39940808617965,280.32784164788563 212.4114104889103,300.4078294512504 214,304 C 215.5885895110897,307.5921705487496 232.75376613053848,294.69652384288406 242,276 C 251.24623386946152,257.30347615711594 252.57352498893573,232.8060751772133 280,241 C 307.42647501106427,249.1939248227867 360.95213391371857,290.0791754482628 369,295 C 377.04786608628143,299.9208245517372 339.61793935618994,268.8772230297357 350,257 C 360.38206064381006,245.12277697026428 418.5761086615216,252.41193243279434 432,268 C 445.4238913384784,283.58806756720566 414.0776259977238,307.4750472390868 423,320 C 431.9223740022762,332.5249527609132 481.1133873475833,333.68787861085843 505,329 C 528.8866126524167,324.31212138914157 527.4688246119426,313.77343831747925 529,312 C 530.5311753880574,310.22656168252075 535.011314204646,317.21836811922464 547,327 C 558.988685795354,336.78163188077536 578.4859185694733,349.3530892056221 584,325 C 589.5140814305267,300.6469107943779 581.0450115174608,239.36927505828686 593,238 C 604.9549884825392,236.63072494171314 637.3340353606836,295.1698105612304 656,306 C 674.6659646393164,316.8301894387696 679.6188470398046,279.9514826967913 688,269 C 696.3811529601954,258.0485173032087 708.1905764800977,273.0242586516043 720,288 C 720,288 720,720 720,720 Z" fill="#3d1053" opacity="0.24"/><path d="M 0,720 C 0,720 0,432 0,432 C -1.479231344577558,435.3254131078602 -2.958462689155116,438.65082621572043 10,426 C 22.958462689155116,413.34917378427957 50.35461941204291,384.72210824497853 71,381 C 91.64538058795709,377.27789175502147 105.53998504098347,398.46074080436546 112,410 C 118.46001495901653,421.53925919563454 117.48544042402324,423.43492853755964 122,426 C 126.51455957597676,428.56507146244036 136.5182532629236,431.7995450453962 157,427 C 177.4817467370764,422.2004549546038 208.44154652428233,409.36689128085555 219,411 C 229.55845347571767,412.63310871914445 219.71556063994694,428.73288983118175 226,449 C 232.28443936005306,469.26711016881825 254.69621091592984,493.7015493944177 272,478 C 289.30378908407016,462.2984506055823 301.4995956963337,406.4609125911473 318,393 C 334.5004043036663,379.5390874088527 355.3054062987356,408.45480024099317 358,428 C 360.6945937012644,447.54519975900683 345.27877910872394,457.7198864448799 354,438 C 362.72122089127606,418.2801135551201 395.57947726636866,368.6656539794872 420,380 C 444.42052273363134,391.3343460205128 460.4033118258016,463.6174976371713 463,469 C 465.5966881741984,474.3825023628287 454.80727543042514,412.86435547182765 454,391 C 453.19272456957486,369.13564452817235 462.36758645249813,386.92508047551786 485,413 C 507.63241354750187,439.07491952448214 543.7223787595822,473.4353226261011 567,480 C 590.2776212404178,486.5646773738989 600.7428985091726,465.33362902007786 603,439 C 605.2571014908274,412.66637097992214 599.3060272037269,381.23016129358734 608,383 C 616.6939727962731,384.76983870641266 640.0329926759197,419.74572580557265 657,427 C 673.9670073240803,434.25427419442735 684.5620020925943,413.78693548412207 694,410 C 703.4379979074057,406.21306451587793 711.7189989537028,419.10653225793897 720,432 C 720,432 720,720 720,720 Z" fill="#3d1053" opacity="0.36"/><path d="M 0,720 C 0,720 0,576 0,576 C -5.501064141536288,573.7812850319182 -11.002128283072576,571.5625700638363 7,573 C 25.002128283072576,574.4374299361637 66.50744899075401,579.5310047765729 82,577 C 97.49255100924599,574.4689952234271 86.97233232005654,564.3134108298716 93,569 C 99.02766767994346,573.6865891701284 121.60322172901988,593.2153519039407 140,586 C 158.39677827098012,578.7846480960593 172.61478076386408,544.8251815543655 187,544 C 201.38521923613592,543.1748184456345 215.93765521552376,575.4839218785974 231,580 C 246.06234478447624,584.5160781214026 261.6345983740408,561.2391309312447 261,563 C 260.3654016259592,564.7608690687553 243.52395128831301,591.5595543964237 257,596 C 270.476048711687,600.4404456035763 314.2695964727073,582.5226514830599 338,569 C 361.7304035272927,555.4773485169401 365.39766282085793,546.3498396713366 366,536 C 366.60233717914207,525.6501603286634 364.13975224386104,514.077989831594 367,522 C 369.86024775613896,529.922010168406 378.0433282036981,557.3382010022873 394,559 C 409.9566717963019,560.6617989977127 433.68693494134664,536.5692061592567 448,545 C 462.31306505865336,553.4307938407433 467.20893203091504,594.3849743606859 471,601 C 474.79106796908496,607.6150256393141 477.4773369349928,579.8908963979994 492,563 C 506.5226630650072,546.1091036020006 532.8817202291137,540.0514400473161 553,536 C 573.1182797708863,531.9485599526839 586.9957821485523,529.9033434127358 595,525 C 603.0042178514477,520.0966565872642 605.1351511766766,512.3351863017409 618,527 C 630.8648488233234,541.6648136982591 654.463613144741,578.7559113803005 662,576 C 669.536386855259,573.2440886196995 661.0103962443596,530.641168177057 668,524 C 674.9896037556404,517.358831822943 697.4948018778202,546.6794159114716 720,576 C 720,576 720,720 720,720 Z" fill="#3d1053" opacity="0.48"/></svg>