<svg width="720" height="720" viewBox="0 0 720 720" xmlns="http://www.w3.org/2000/svg"><rect width="720" height="720" fill="#9c6d7b"/><path d="M 0,720 C 0,720 0,144 0,144 C -0.592846286325047,120.00468004759264 -1.185692572650094,96.0093600951853 14,110 C 29.185692572650094,123.9906399048147 60.149924004275334,175.96723966685147 72,177 C 83.85007599572467,178.03276033314853 76.5859965555487,128.1216812374089 79,113 C 81.4140034444513,97.8783187625911 93.50608977352982,117.54603538351299 116,143 C 138.49391022647018,168.453964616487 171.38964435033205,199.6941772285391 186,184 C 200.61035564966795,168.3058227714609 196.9353328251421,105.67725570233047 196,104 C 195.0646671748579,102.32274429766953 196.86902434909967,161.59679996213902 211,184 C 225.13097565090033,206.40320003786098 251.58856977845932,191.93554444911342 270,176 C 288.4114302215407,160.06445555088658 298.7766965370632,142.6610222414073 307,128 C 315.2233034629368,113.33897775859272 321.304644073288,101.42036658525743 341,99 C 360.695355926712,96.57963341474257 394.0047271697847,103.65751141756307 403,115 C 411.9952728302153,126.34248858243693 396.6764472475732,141.94958774449026 404,139 C 411.3235527524268,136.05041225550974 441.28948383992275,114.54413760447594 455,111 C 468.71051616007725,107.45586239552406 466.1656173927357,121.873861837606 473,141 C 479.8343826072643,160.126138162394 496.04804658913406,183.9604150451 508,171 C 519.9519534108659,158.0395849549 527.6421962507279,108.28447798199393 549,104 C 570.3578037492721,99.71552201800607 605.383168407954,140.90167302692427 613,150 C 620.616831592046,159.09832697307573 600.8251301174556,136.10882991030894 595,119 C 589.1748698825444,101.89117008969104 597.3163111222234,90.6630073318399 620,90 C 642.6836888777766,89.3369926681601 679.9096253936505,99.23914076233144 699,110 C 718.0903746063495,120.76085923766856 719.0451873031748,132.38042961883428 720,144 C 720,144 720,720 720,720 Z" fill="#2f243d" opacity="0.12"/><path d="M 0,720 C 0,720 0,288 0,288 C 21.867342728814478,272.90296920122125 43.734685457628956,257.80593840244256 55,263 C 66.26531454237104,268.19406159755744 66.92860089829865,293.67921559145105 71,299 C 75.07139910170135,304.32078440854895 82.55091094917644,289.4771992317533 92,288 C 101.44908905082356,286.5228007682467 112.86775530499557,298.41198748153596 130,299 C 147.13224469500443,299.58801251846404 169.97806783084124,288.8748508421028 179,303 C 188.02193216915876,317.1251491578972 183.2199733716394,356.088609150053 198,340 C 212.7800266283606,323.911390849947 247.14203868260108,252.77071255768524 258,250 C 268.8579613173989,247.22928744231476 256.2118718979563,312.82854061920614 263,316 C 269.7881281020437,319.17145938079386 296.01047372557383,259.9151249654904 306,245 C 315.98952627442617,230.0848750345096 309.7462331997483,259.5109595188321 322,286 C 334.2537668002517,312.4890404811679 365.00459347543307,336.0410369591808 374,322 C 382.99540652456693,307.9589630408192 370.23539289851936,256.3248926444446 380,257 C 389.76460710148064,257.6751073555554 422.05383493048953,310.65939246304055 436,313 C 449.94616506951047,315.34060753695945 445.54926737952235,267.0375375033932 452,246 C 458.45073262047765,224.96246249660683 475.7490955514211,231.1904575233867 499,240 C 522.2509044485789,248.8095424766133 551.4543504147931,260.2006324030599 573,254 C 594.5456495852069,247.79936759694007 608.4335027894062,224.00701286437345 612,243 C 615.5664972105938,261.99298713562655 608.8116384275819,323.77131613944624 616,329 C 623.1883615724181,334.22868386055376 644.3199435002664,282.90772257784135 659,259 C 673.6800564997336,235.09227742215862 681.9085875713524,238.59779354918817 691,248 C 700.0914124286476,257.40220645081183 710.0457062143238,272.7011032254059 720,288 C 720,288 720,720 720,720 Z" fill="#2f243d" opacity="0.24"/><path d="M 0,720 C 0,720 0,432 0,432 C 15.95166700968118,431.56449523894486 31.90333401936236,431.1289904778897 40,444 C 48.09666598063764,456.8710095221103 48.338330932231734,483.04853332738594 55,474 C 61.661669067768266,464.95146667261406 74.7433422517107,420.6768762125665 89,399 C 103.2566577482893,377.3231237874335 118.68830006092551,378.24396182234796 130,398 C 141.3116999390745,417.75603817765204 148.5034575045872,456.34727649804177 161,452 C 173.4965424954128,447.65272350195823 191.29786992072567,400.36693218548504 210,389 C 228.70213007927433,377.63306781451496 248.30506281251002,402.1849947600179 260,405 C 271.69493718749,407.8150052399821 275.4818788292343,388.89308877444324 284,402 C 292.5181211707657,415.10691122555676 305.76742187055294,460.24265014220913 313,475 C 320.23257812944706,489.75734985779087 321.44843368855396,474.13631065672024 333,466 C 344.55156631144604,457.86368934327976 366.4388433752313,457.2121072309101 378,457 C 389.5611566247687,456.7878927690899 390.7961928105209,457.0152604196397 410,436 C 429.2038071894791,414.9847395803603 466.3763853826849,372.72685109053117 476,386 C 485.6236146173151,399.27314890946883 467.6982656587395,468.07733521823565 463,472 C 458.3017343412605,475.92266478176435 466.83055198235684,414.9638080365259 490,401 C 513.1694480176432,387.0361919634741 550.9795264118333,420.06743263566074 574,446 C 597.0204735881667,471.93256736433926 605.2513423703099,490.7664614208312 610,475 C 614.7486576296901,459.2335385791688 616.0151041069273,408.8667216810143 621,389 C 625.9848958930727,369.1332783189857 634.688241201981,379.76665185511155 652,398 C 669.311758798019,416.23334814488845 695.2319310851483,442.06667089853954 708,449 C 720.7680689148517,455.93332910146046 720.3840344574259,443.96666455073023 720,432 C 720,432 720,720 720,720 Z" fill="#2f243d" opacity="0.36"/><path d="M 0,720 C 0,720 0,576 0,576 C 12.633740530128502,594.8608826974221 25.267481060257005,613.721765394844 42,609 C 58.732518939742995,604.278234605156 79.56381628910049,575.9738211180456 88,561 C 96.43618371089951,546.0261788819544 92.47725378334107,544.3829501329735 95,539 C 97.52274621665893,533.6170498670265 106.52716857753525,524.4943783500603 112,546 C 117.47283142246475,567.5056216499397 119.41407190651799,619.6395364667858 140,622 C 160.585928093482,624.3604635332142 199.81654379639278,576.9474757827967 211,557 C 222.18345620360722,537.0525242172033 205.31975290791092,544.5705604020276 211,541 C 216.68024709208908,537.4294395979724 244.90444457196338,522.7702826090932 256,527 C 267.0955554280366,531.2297173909068 261.06246880423527,554.3483091615993 283,563 C 304.93753119576473,571.6516908384007 354.8456802110956,565.8364807445095 369,558 C 383.1543197889044,550.1635192554905 361.5548103513821,540.3057678603628 366,550 C 370.4451896486179,559.6942321396372 400.9350783833759,588.9404478140393 412,612 C 423.0649216166241,635.0595521859607 414.7048761151143,651.9324408834794 425,627 C 435.2951238848857,602.0675591165206 464.245417156167,535.3297886520431 480,523 C 495.754582843833,510.67021134795687 498.31345526021784,552.7484045083478 505,574 C 511.68654473978216,595.2515954916522 522.5007618029616,595.6765933145656 531,603 C 539.4992381970384,610.3234066854344 545.6834975279356,624.5452222333898 568,628 C 590.3165024720644,631.4547777666102 628.7652480852955,624.1425177518748 638,622 C 647.2347519147045,619.8574822481252 627.2555101308819,622.8847067591106 639,603 C 650.7444898691181,583.1152932408894 694.2127113911766,540.3186552116827 713,532 C 731.7872886088234,523.6813447883173 725.8936443044117,549.8406723941587 720,576 C 720,576 720,720 720,720 Z" fill="#2f243d" opacity="0.48"/></svg>